<?xml version="1.0" encoding="UTF-8" ?>
<svg version="1.1" width="64" height="64" xmlns="http://www.w3.org/2000/svg" shape-rendering="crispEdges">
<rect x="8" y="0" width="48" height="4" fill="#0B5E65" />
<rect x="4" y="4" width="4" height="4" fill="#0B5E65" />
<rect x="8" y="4" width="48" height="16" fill="#0EAF9B" />
<rect x="56" y="4" width="4" height="4" fill="#0B5E65" />
<rect x="0" y="8" width="4" height="48" fill="#0B5E65" />
<rect x="4" y="8" width="4" height="20" fill="#0EAF9B" />
<rect x="56" y="8" width="4" height="48" fill="#0EAF9B" />
<rect x="60" y="8" width="4" height="48" fill="#0B5E65" />
<rect x="8" y="20" width="20" height="4" fill="#0EAF9B" />
<rect x="28" y="20" width="12" height="4" fill="#30E1B9" />
<rect x="40" y="20" width="16" height="4" fill="#0EAF9B" />
<rect x="8" y="24" width="16" height="12" fill="#0EAF9B" />
<rect x="24" y="24" width="4" height="12" fill="#30E1B9" />
<rect x="28" y="24" width="4" height="8" fill="#8FF8E2" />
<rect x="32" y="24" width="4" height="16" fill="#30E1B9" />
<rect x="36" y="24" width="4" height="8" fill="#8FF8E2" />
<rect x="40" y="24" width="4" height="12" fill="#30E1B9" />
<rect x="44" y="24" width="12" height="32" fill="#0EAF9B" />
<rect x="4" y="28" width="4" height="28" fill="#0B8A8F" />
<rect x="28" y="32" width="4" height="8" fill="#30E1B9" />
<rect x="36" y="32" width="4" height="8" fill="#30E1B9" />
<rect x="8" y="36" width="4" height="24" fill="#0B8A8F" />
<rect x="12" y="36" width="16" height="4" fill="#0EAF9B" />
<rect x="40" y="36" width="4" height="16" fill="#0EAF9B" />
<rect x="12" y="40" width="4" height="20" fill="#0B8A8F" />
<rect x="16" y="40" width="24" height="4" fill="#0EAF9B" />
<rect x="16" y="44" width="4" height="16" fill="#0B8A8F" />
<rect x="20" y="44" width="20" height="4" fill="#0EAF9B" />
<rect x="20" y="48" width="8" height="12" fill="#0B8A8F" />
<rect x="28" y="48" width="12" height="4" fill="#0EAF9B" />
<rect x="28" y="52" width="16" height="8" fill="#0B8A8F" />
<rect x="4" y="56" width="4" height="4" fill="#0B5E65" />
<rect x="44" y="56" width="12" height="4" fill="#0B8A8F" />
<rect x="56" y="56" width="4" height="4" fill="#0B5E65" />
<rect x="8" y="60" width="48" height="4" fill="#0B5E65" />
</svg>